<svg width="3316" height="977" viewBox="0 0 3316 977" fill="none" xmlns="http://www.w3.org/2000/svg">
<path d="M2961.28 766.754L2924.19 644.979H2737.68L2700.59 766.754H2583.71L2764.27 253.059H2896.9L3078.16 766.754H2961.28ZM2898.3 553.998C2864 443.653 2844.64 381.25 2840.21 366.786C2836.01 352.322 2832.98 340.891 2831.11 332.493C2823.41 362.353 2801.37 436.188 2764.97 553.998H2898.3ZM3142.9 766.754V255.159H3251.37V766.754H3142.9Z" fill="#FC8181"/>
<path d="M1305.13 617.562C1305.13 663.801 1288.46 700.232 1255.11 726.855C1222 753.478 1175.83 766.789 1116.6 766.789C1062.03 766.789 1013.76 756.514 971.783 735.963V635.077C1006.3 650.49 1035.44 661.349 1059.23 667.654C1083.25 673.96 1105.17 677.112 1124.99 677.112C1148.78 677.112 1166.96 672.559 1179.56 663.451C1192.38 654.343 1198.8 640.798 1198.8 622.816C1198.8 612.774 1196 603.9 1190.4 596.193C1184.8 588.253 1176.53 580.663 1165.57 573.424C1154.84 566.184 1132.8 554.624 1099.46 538.744C1068.21 524.032 1044.77 509.903 1029.15 496.358C1013.52 482.813 1001.05 467.05 991.721 449.068C982.393 431.085 977.73 410.068 977.73 386.014C977.73 340.708 993.004 305.094 1023.55 279.172C1054.33 253.25 1096.77 240.289 1150.87 240.289C1177.46 240.289 1202.76 243.442 1226.78 249.747C1251.03 256.053 1276.33 264.927 1302.68 276.37L1267.7 360.792C1240.42 349.582 1217.8 341.759 1199.84 337.322C1182.12 332.885 1164.63 330.666 1147.38 330.666C1126.86 330.666 1111.12 335.454 1100.16 345.029C1089.2 354.603 1083.72 367.097 1083.72 382.511C1083.72 392.085 1085.93 400.493 1090.36 407.732C1094.79 414.738 1101.79 421.627 1111.35 428.4C1121.14 434.939 1144.11 446.849 1180.26 464.13C1228.06 487.017 1260.82 510.02 1278.55 533.139C1296.27 556.026 1305.13 584.166 1305.13 617.562Z" fill="white"/>
<path d="M1816.87 759.783H1708.79V538.744H1506.26V759.783H1397.82V247.645H1506.26V448.367H1708.79V247.645H1816.87V759.783Z" fill="white"/>
<path d="M1946.29 759.783V247.645H2054.72V759.783H1946.29Z" fill="white"/>
<path d="M2291.88 488.651H2327.56C2360.91 488.651 2385.86 482.112 2402.41 469.035C2418.97 455.723 2427.25 436.457 2427.25 411.235C2427.25 385.78 2420.25 366.981 2406.26 354.837C2392.5 342.693 2370.82 336.621 2341.2 336.621H2291.88V488.651ZM2536.73 407.382C2536.73 462.496 2519.48 504.648 2484.96 533.84C2450.68 563.032 2401.83 577.627 2338.4 577.627H2291.88V759.783H2183.45V247.645H2346.8C2408.83 247.645 2455.93 261.073 2488.11 287.93C2520.53 314.553 2536.73 354.37 2536.73 407.382Z" fill="white"/>
<path d="M861.268 628.991L0.0502718 628.991L0.0502824 749.928L430.659 870.865L861.268 749.928L861.268 628.991Z" fill="white"/>
<rect x="670.693" y="409.424" width="190.443" height="241.449" fill="white"/>
<rect x="0.0449219" y="409.424" width="190.443" height="241.449" fill="white"/>
<path d="M223.93 189.754H637.773V603.597H223.93V189.754Z" fill="#FC8181"/>
<circle cx="447.35" cy="291.411" r="26.8855" fill="white"/>
<circle cx="447.35" cy="396.477" r="26.8855" fill="white"/>
<circle cx="447.35" cy="504.731" r="26.8855" fill="white"/>
<circle cx="551.708" cy="398.311" r="26.8855" fill="white"/>
<circle cx="343.001" cy="344.192" r="26.8855" fill="white"/>
<circle cx="343.001" cy="452.446" r="26.8855" fill="white"/>
<path d="M342.504 343.696L448.065 289.816" stroke="white" stroke-width="13.1951"/>
<path d="M342.504 343.695L445.865 505.335" stroke="white" stroke-width="13.1951"/>
<path d="M342.504 343.695L448.065 395.376" stroke="white" stroke-width="13.1951"/>
<path d="M343.605 452.556L448.067 395.377" stroke="white" stroke-width="13.1951"/>
<path d="M343.605 452.556L448.067 289.816" stroke="white" stroke-width="13.1951"/>
<path d="M343.605 452.555L446.967 507.534" stroke="white" stroke-width="13.1951"/>
<path d="M551.428 396.717L448.066 505.336" stroke="white" stroke-width="13.1951"/>
<path d="M551.428 396.717H446.967" stroke="white" stroke-width="13.1951"/>
<path d="M551.428 396.717L446.967 288.957" stroke="white" stroke-width="13.1951"/>
</svg>
