<?xml version="1.0" encoding="UTF-8"?>
<svg width="2048.4" height="295.88" version="1.1" viewBox="0 0 2048.4 295.88" xmlns="http://www.w3.org/2000/svg">
 <defs>
  <style>.cls-1{fill:#fff;}</style>
 </defs>
 <g id="Text_weiss" transform="translate(-85.036 -44.316)" data-name="Text weiss">
  <path class="cls-1" d="m507.12 167.27v63a36.27 36.27 0 0 1-4.85 18.93 31.44 31.44 0 0 1-14 12.46q-9.15 4.34-21.66 4.34-18.86 0-29.28-9.63t-10.43-26.37v-62.73h20.66v59.65q0 11.27 4.54 16.53t15.05 5.27q10.16 0 14.74-5.3t4.58-16.63v-59.52z"/>
  <path class="cls-1" d="m594.76 264.71h-20.39v-43.52q0-8.07-2.88-12.1t-9.16-4q-8.55 0-12.36 5.7t-3.81 18.89v35.06h-20.4v-74.54h15.58l2.74 9.53h1.14a21.54 21.54 0 0 1 9.39-8.17 32.16 32.16 0 0 1 13.61-2.76q13 0 19.79 7t6.75 20.3z"/>
  <path class="cls-1" d="m611.06 170.94q0-9.93 11.1-9.94t11.1 9.94a9.65 9.65 0 0 1-2.77 7.36c-1.85 1.76-4.63 2.63-8.33 2.63q-11.1 0-11.1-9.99zm21.27 93.77h-20.4v-74.51h20.4z"/>
  <path class="cls-1" d="m669.74 264.71-28.48-74.51h21.32l14.42 42.45a75.2 75.2 0 0 1 3 15.27h0.4a66.75 66.75 0 0 1 3-15.27l14.38-42.45h21.32l-28.48 74.51z"/>
  <path class="cls-1" d="m759.3 266.05q-18 0-28.21-9.93t-10.16-28.12q0-18.74 9.39-29t26-10.23q15.86 0 24.67 9t8.83 24.86v9.86h-48.2q0.33 8.67 5.14 13.53t13.51 4.87a56.41 56.41 0 0 0 12.77-1.4 64.2 64.2 0 0 0 12.57-4.47v15.73a48.17 48.17 0 0 1-11.43 4 72.85 72.85 0 0 1-14.88 1.3zm-2.87-62.79q-6.49 0-10.16 4.1t-4.22 11.64h28.62q-0.13-7.53-3.95-11.63t-10.29-4.11z"/>
  <path class="cls-1" d="m845.75 188.8a32.88 32.88 0 0 1 6.88 0.6l-1.53 19.06a23.65 23.65 0 0 0-6-0.67q-9.76 0-15.21 5t-5.45 14v37.92h-20.44v-74.51h15.44l3 12.53h1a28.06 28.06 0 0 1 9.4-10.1 23.23 23.23 0 0 1 12.91-3.83z"/>
  <path class="cls-1" d="m916.82 242.58q0 11.47-8 17.47t-23.9 6a75.65 75.65 0 0 1-13.92-1.05 52.62 52.62 0 0 1-10.76-3.24v-16.84a71.24 71.24 0 0 0 12.8 4.46 52 52 0 0 0 12.54 1.8q11.1 0 11.1-6.4a5.3 5.3 0 0 0-1.47-3.89 21.35 21.35 0 0 0-5.09-3.4q-3.6-1.91-9.62-4.44-8.62-3.6-12.67-6.66a18.8 18.8 0 0 1-5.89-7 23.27 23.27 0 0 1-1.84-9.77q0-9.93 7.73-15.36t21.89-5.43a62.33 62.33 0 0 1 26.28 5.83l-6.15 14.67q-5.62-2.4-10.5-3.94a33.07 33.07 0 0 0-10-1.53q-9 0-9 4.87 0 2.73 2.91 4.73t12.74 5.93q8.76 3.54 12.83 6.6a19.51 19.51 0 0 1 6 7.06 21.72 21.72 0 0 1 1.99 9.53z"/>
  <path class="cls-1" d="m929.25 170.94q0-9.93 11.1-9.94t11.09 9.94a9.65 9.65 0 0 1-2.77 7.36c-1.85 1.76-4.63 2.63-8.32 2.63q-11.1 0-11.1-9.99zm21.26 93.77h-20.39v-74.51h20.39z"/>
  <path class="cls-1" d="m1e3 249.85a44.59 44.59 0 0 0 12.84-2.33v15.13q-7.63 3.39-18.72 3.4-12.24 0-17.82-6.17t-5.58-18.5v-35.92h-9.77v-8.6l11.24-6.8 5.81-15.73h13v15.87h21v15.26h-20.92v35.92c0 2.89 0.81 5 2.44 6.4a9.61 9.61 0 0 0 6.48 2.07z"/>
  <path class="cls-1" d="m1018.4 190.2h22.33l14.11 41.92a58.5 58.5 0 0 1 2.47 12.93h0.4a56.81 56.81 0 0 1 2.88-12.93l13.84-41.92h21.86l-31.63 84q-4.34 11.67-12.4 17.47a31.39 31.39 0 0 1-18.82 5.79 47.18 47.18 0 0 1-10.36-1.13v-16.09a34.77 34.77 0 0 0 8 0.87 14.5 14.5 0 0 0 9.46-3.3q4-3.3 6.32-10l1.2-3.67z"/>
  <path class="cls-1" d="m1185.6 264.71-23.55-76.45h-0.6q1.26 23.34 1.27 31.13v45.32h-18.52v-97.44h28.21l23.13 74.52h0.41l24.53-74.52h28.22v97.44h-19.33v-46.12c0-2.18 0-4.69 0.1-7.53s0.37-10.4 0.91-22.66h-0.6l-25.21 76.31z"/>
  <path class="cls-1" d="m1302.6 266.05q-18 0-28.21-9.93t-10.17-28.12q0-18.74 9.4-29t26-10.23q15.86 0 24.67 9t8.83 24.86v9.86h-48.21q0.35 8.67 5.15 13.53t13.51 4.87a56.41 56.41 0 0 0 12.77-1.4 64.2 64.2 0 0 0 12.57-4.47v15.73a48.09 48.09 0 0 1-11.44 4 72.68 72.68 0 0 1-14.87 1.3zm-2.87-62.79q-6.49 0-10.17 4.1t-4.21 11.64h28.62q-0.13-7.53-4-11.63t-10.24-4.11z"/>
  <path class="cls-1" d="m1371.8 266.05q-13.18 0-20.7-10.2t-7.52-28.26q0-18.33 7.66-28.56t21.09-10.23q14.1 0 21.53 10.93h0.67a82.5 82.5 0 0 1-1.54-14.86v-23.87h20.46v103.71h-15.65l-3.94-9.66h-0.91q-6.92 10.95-21.15 11zm7.15-16.2q7.82 0 11.47-4.53t4-15.4v-2.2q0-12-3.71-17.19t-12.06-5.2a12 12 0 0 0-10.6 5.76q-3.78 5.78-3.78 16.77t3.81 16.49a12.45 12.45 0 0 0 10.87 5.5z"/>
  <path class="cls-1" d="m1430.4 170.94q0-9.93 11.1-9.94t11.1 9.94a9.66 9.66 0 0 1-2.78 7.36c-1.85 1.76-4.62 2.63-8.32 2.63q-11.1 0-11.1-9.99zm21.26 93.77h-20.39v-74.51h20.39z"/>
  <path class="cls-1" d="m1500.3 266.05q-34.9 0-34.9-38.19 0-19 9.49-29t27.21-10a52.1 52.1 0 0 1 23.27 5.06l-6 15.73q-4.81-1.93-9-3.16a29 29 0 0 0-8.29-1.24q-15.9 0-15.91 22.53 0 21.87 15.91 21.86a36.49 36.49 0 0 0 10.91-1.64 39.66 39.66 0 0 0 10-4.9v17.39a32.9 32.9 0 0 1-10 4.34 56.31 56.31 0 0 1-12.69 1.22z"/>
  <path class="cls-1" d="m1536.2 170.94q0-9.93 11.1-9.94t11.09 9.94a9.65 9.65 0 0 1-2.77 7.36c-1.85 1.76-4.63 2.63-8.32 2.63q-11.1 0-11.1-9.99zm21.26 93.77h-20.39v-74.51h20.39z"/>
  <path class="cls-1" d="m1644.3 264.71h-20.39v-43.52q0-8.07-2.87-12.1t-9.16-4q-8.56 0-12.37 5.7t-3.81 18.89v35.06h-20.39v-74.54h15.57l2.75 9.53h1.13a21.62 21.62 0 0 1 9.4-8.17 32.08 32.08 0 0 1 13.6-2.76q13 0 19.79 7t6.75 20.3z"/>
  <path class="cls-1" d="m1696 266.05q-18 0-28.21-9.93t-10.13-28.12q0-18.74 9.39-29t26-10.23q15.84 0 24.67 9t8.82 24.86v9.86h-48.2q0.33 8.67 5.14 13.53t13.51 4.87a56.41 56.41 0 0 0 12.77-1.4 64.2 64.2 0 0 0 12.57-4.47v15.73a48.17 48.17 0 0 1-11.43 4 72.85 72.85 0 0 1-14.9 1.3zm-2.87-62.79q-6.5 0-10.16 4.1t-4.19 11.64h28.62q-0.14-7.53-3.94-11.63t-10.3-4.11z"/>
  <path class="cls-1" d="m1836.6 264.71h-56.3v-97.44h56.3v16.93h-35.57v21.39h33.09v16.93h-33.09v25.13h35.57z"/>
  <path class="cls-1" d="m1906.1 242.58q0 11.47-8 17.47t-23.9 6a75.46 75.46 0 0 1-13.9-1.1 52.52 52.52 0 0 1-10.77-3.24v-16.79a71.24 71.24 0 0 0 12.8 4.46 52 52 0 0 0 12.54 1.8q11.1 0 11.1-6.4a5.3 5.3 0 0 0-1.47-3.89 21.25 21.25 0 0 0-5.08-3.4q-3.62-1.91-9.63-4.44-8.62-3.6-12.67-6.66a18.67 18.67 0 0 1-5.88-7 23.11 23.11 0 0 1-1.84-9.77q0-9.93 7.72-15.36t21.9-5.43a62.29 62.29 0 0 1 26.27 5.86l-6.15 14.67q-5.61-2.4-10.5-3.94a33.07 33.07 0 0 0-10-1.53q-9 0-9 4.87c0 1.82 1 3.4 2.9 4.73s6.19 3.31 12.74 5.93q8.76 3.54 12.84 6.6a19.57 19.57 0 0 1 6 7.06 21.58 21.58 0 0 1 1.98 9.5z"/>
  <path class="cls-1" d="m1972.4 242.58q0 11.47-8 17.47t-23.9 6a75.46 75.46 0 0 1-13.9-1.1 52.52 52.52 0 0 1-10.77-3.24v-16.79a71.08 71.08 0 0 0 12.81 4.46 51.89 51.89 0 0 0 12.53 1.8q11.1 0 11.1-6.4a5.3 5.3 0 0 0-1.47-3.89 21.25 21.25 0 0 0-5.08-3.4q-3.62-1.91-9.63-4.44-8.62-3.6-12.67-6.66a18.67 18.67 0 0 1-5.88-7 23.11 23.11 0 0 1-1.84-9.77q0-9.93 7.72-15.36t21.9-5.43a62.29 62.29 0 0 1 26.27 5.86l-6.15 14.67q-5.61-2.4-10.5-3.94a33.07 33.07 0 0 0-10-1.53q-9 0-9 4.87 0 2.73 2.9 4.73t12.74 5.93q8.76 3.54 12.84 6.6a19.57 19.57 0 0 1 6 7.06 21.58 21.58 0 0 1 1.98 9.5z"/>
  <path class="cls-1" d="m2019.6 266.05q-18 0-28.21-9.93t-10.16-28.12q0-18.74 9.39-29t26-10.23q15.86 0 24.67 9t8.83 24.86v9.86h-48.2q0.33 8.67 5.14 13.53t13.51 4.87a56.41 56.41 0 0 0 12.77-1.4 64.2 64.2 0 0 0 12.57-4.47v15.73a48.09 48.09 0 0 1-11.44 4 72.68 72.68 0 0 1-14.87 1.3zm-2.87-62.79c-4.33 0-7.71 1.37-10.17 4.1s-3.85 6.61-4.21 11.63h28.63q-0.13-7.53-4-11.63t-10.25-4.1z"/>
  <path class="cls-1" d="m2133.4 264.71h-20.35v-43.52q0-8.07-2.87-12.1t-9.16-4q-8.57 0-12.37 5.7t-3.81 18.89v35.06h-20.39v-74.54h15.58l2.74 9.53h1.13a21.62 21.62 0 0 1 9.4-8.17 32.11 32.11 0 0 1 13.6-2.76q13 0 19.79 7t6.76 20.3z"/>
 </g>
 <g id="Sig_weiss" transform="translate(-85.036 -44.316)" data-name="Sig weiss">
  <path class="cls-1" d="m189.1 289.7v48.48a127.58 127.58 0 0 1-45.43-232.74c2 16.08 8.92 30.5 20.68 43a80.42 80.42 0 0 0 24.75 141.26zm47.19-202.27v48.49a80.43 80.43 0 0 1 20.28 144.19c5.46 8 9 17.1 9.06 27.69a47.67 47.67 0 0 1-5.83 23.52 127.59 127.59 0 0 0-23.51-243.89zm-18.29 137.13v44.1c14.58 10.4 29.24 23 29.34 39.25 0 6.68-2.18 20.53-18.5 27.66-14.1 6.16-28.84 5.45-29.55 2.06s5.57-4.43 14.76-8.28c12.32-5.17 14.77-13.58 14.77-18.56s-2.16-12-10.82-17.81v27.43c-2.31 3.29-10.54 5.56-10.54 5.56v-95.9c-8.37 4.79-13.61 9.3-13.61 14.65 0 4.87 3 8.94 8.29 13.27v25c-14.27-9-28.82-19.64-28.82-38.25 0-9.84 4.73-18.57 14.08-26 7-5.52 15.72-9.79 24.19-13.93 12.75-6.23 25.95-12.67 25.95-20.33 0-7-7.24-12.71-19.54-20.23v31.5l-10.58 5.25v-115.8s2.1-0.13 5.21-0.13 5.33 0.13 5.33 0.13v55.18l3.54 2.09c17.96 10.53 36.5 21.53 36.5 42.03s-19.91 30.21-37.47 38.78zm24.66-179.56c-5.83-1.76-9.45 0.47-13 0.14a90.94 90.94 0 0 0-13.7-0.46 57.06 57.06 0 0 0-37.6 14.93c-10.76 9.77-16.93 22.87-16.93 35.93 0 16 5.69 29.54 17.39 41.48 6.9 7 15.19 12.72 23.31 17.73v-24.6c-11.67-8.63-20.17-18.89-20.17-34.57s16.61-30.32 34.18-30.32a69.52 69.52 0 0 1 10.89 0.93c2.37 0.65 3.2 4 9.69 4.7 7.77 0.86 20.32-0.71 21.86-4.21s-6.78-18.89-15.92-21.68z"/>
 </g>
</svg>
